<?xml version="1.0" encoding="UTF-8" standalone="no"?>
<svg
   xmlns:dc="http://purl.org/dc/elements/1.1/"
   xmlns:cc="http://creativecommons.org/ns#"
   xmlns:rdf="http://www.w3.org/1999/02/22-rdf-syntax-ns#"
   xmlns:svg="http://www.w3.org/2000/svg"
   xmlns="http://www.w3.org/2000/svg"
   id="svg8"
   version="1.1"
   viewBox="0 0 75.435524 14.631039"
   height="14.631039mm"
   width="75.435524mm">
  <defs
     id="defs2" />
  <metadata
     id="metadata5">
    <rdf:RDF>
      <cc:Work
         rdf:about="">
        <dc:format>image/svg+xml</dc:format>
        <dc:type
           rdf:resource="http://purl.org/dc/dcmitype/StillImage" />
        <dc:title></dc:title>
      </cc:Work>
    </rdf:RDF>
  </metadata>
  <g
     transform="translate(-70.881783,-102.5385)"
     id="layer1">
    <rect
       y="102.5385"
       x="70.881783"
       height="14.631039"
       width="75.435524"
       id="rect843"
       style="fill:#4527a0;fill-opacity:1;stroke:none;stroke-width:0.32765445;stroke-linecap:round;stroke-linejoin:bevel;stroke-miterlimit:4;stroke-dasharray:none;stroke-opacity:1;paint-order:normal" />
    <path
       id="path851"
       d="m 101.52746,102.87482 17.22583,10.50703 -47.435993,0.0783 z"
       style="fill:#5b4aa9;fill-opacity:1;stroke:none;stroke-width:0.31155717px;stroke-linecap:butt;stroke-linejoin:miter;stroke-opacity:1" />
    <g
       id="text817"
       style="font-style:normal;font-weight:normal;font-size:10.58333302px;line-height:1.25;font-family:sans-serif;letter-spacing:0px;word-spacing:0px;fill:#fffff4;fill-opacity:1;stroke:none;stroke-width:0.26458332;stroke-opacity:1"
       aria-label="entregas">
      <path
         id="path1543"
         style="font-style:normal;font-variant:normal;font-weight:normal;font-stretch:normal;font-size:10.58333302px;font-family:Quantify;-inkscape-font-specification:'Quantify, Normal';font-variant-ligatures:normal;font-variant-caps:normal;font-variant-numeric:normal;font-feature-settings:normal;text-align:start;writing-mode:lr-tb;text-anchor:start;fill:#fffff4;fill-opacity:1;stroke:none;stroke-width:0.26458332;stroke-opacity:1"
         d="m 103.58061,107.17129 q 0.56092,0 1.05834,0.22225 0.49741,0.21167 0.86783,0.58208 0.37042,0.37042 0.58208,0.86784 0.22225,0.49741 0.22225,1.06891 0,0.30692 -0.0635,0.59267 l -0.0106,0.0212 h -2.68817 l -0.67733,-1.0795 h 2.01083 q -0.14816,-0.4445 -0.49741,-0.73025 -0.33867,-0.28575 -0.80434,-0.28575 -0.28575,0 -0.53975,0.11641 -0.254,0.11642 -0.4445,0.3175 -0.17991,0.1905 -0.28575,0.46567 -0.10583,0.26458 -0.10583,0.58208 0,0.24342 0.0953,0.508 0.0952,0.254 0.27517,0.46567 0.17991,0.21167 0.43391,0.35983 0.254,0.13759 0.5715,0.13759 0.28575,0 0.51859,-0.0741 0.24341,-0.0847 0.45508,-0.35983 l 0.0106,-0.0106 0.0212,0.0106 1.22767,0.53975 -0.0212,0.0212 q -0.381,0.52916 -0.97367,0.8255 -0.58208,0.29633 -1.23825,0.29633 -0.5715,0 -1.0795,-0.21167 -0.49741,-0.21166 -0.86783,-0.58208 -0.37042,-0.37042 -0.59267,-0.86783 -0.21166,-0.49742 -0.21166,-1.05834 0,-0.5715 0.21166,-1.06891 0.22225,-0.49742 0.59267,-0.86784 0.37042,-0.37041 0.86783,-0.58208 0.508,-0.22225 1.0795,-0.22225 z" />
      <path
         id="path1545"
         style="font-style:normal;font-variant:normal;font-weight:normal;font-stretch:normal;font-size:10.58333302px;font-family:Quantify;-inkscape-font-specification:'Quantify, Normal';font-variant-ligatures:normal;font-variant-caps:normal;font-variant-numeric:normal;font-feature-settings:normal;text-align:start;writing-mode:lr-tb;text-anchor:start;fill:#fffff4;fill-opacity:1;stroke:none;stroke-width:0.26458332;stroke-opacity:1"
         d="m 106.84656,107.25596 h 1.43934 v 5.29166 h -1.43934 z m 4.8895,0.61383 q 0.26459,0.32808 0.381,0.8255 0.11642,0.49742 0.11642,1.22767 v 2.62466 h -1.43933 v -2.62466 q 0,-0.29634 -0.0212,-0.56092 -0.0106,-0.27517 -0.10583,-0.47625 -0.0953,-0.21167 -0.30692,-0.32808 -0.21167,-0.11642 -0.60325,-0.11642 -0.37042,0 -0.68792,0.15875 v 0.0106 l -0.0106,-0.0106 -0.51858,-0.92075 0.0106,-0.0106 q 0.55033,-0.49742 1.37583,-0.49742 1.27,0 1.80975,0.6985 z" />
      <path
         id="path1547"
         style="font-style:normal;font-variant:normal;font-weight:normal;font-stretch:normal;font-size:10.58333302px;font-family:Quantify;-inkscape-font-specification:'Quantify, Normal';font-variant-ligatures:normal;font-variant-caps:normal;font-variant-numeric:normal;font-feature-settings:normal;text-align:start;writing-mode:lr-tb;text-anchor:start;fill:#fffff4;fill-opacity:1;stroke:none;stroke-width:0.26458332;stroke-opacity:1"
         d="m 116.50336,107.80629 v 1.17475 h -0.78317 l -0.65617,-1.17475 z m -1.61925,2.93158 q 0,0.24342 0.16933,0.41275 0.17992,0.16934 0.42333,0.16934 h 1.02659 v 1.22766 h -1.02659 q -0.41275,0 -0.78316,-0.14816 -0.35984,-0.15875 -0.635,-0.42334 -0.26459,-0.27516 -0.42334,-0.635 -0.15875,-0.35983 -0.15875,-0.77258 v -1.5875 h -0.762 v -1.17475 h 0.762 v -1.91558 h 1.40759 z" />
      <path
         id="path1549"
         style="font-style:normal;font-variant:normal;font-weight:normal;font-stretch:normal;font-size:10.58333302px;font-family:Quantify;-inkscape-font-specification:'Quantify, Normal';font-variant-ligatures:normal;font-variant-caps:normal;font-variant-numeric:normal;font-feature-settings:normal;text-align:start;writing-mode:lr-tb;text-anchor:start;fill:#fffff4;fill-opacity:1;stroke:none;stroke-width:0.26458332;stroke-opacity:1"
         d="m 121.35515,107.46762 -0.127,0.21167 -0.53975,0.96308 -0.0106,-0.0106 q -0.34925,-0.20108 -0.75142,-0.20108 -0.27516,0 -0.51858,0.0952 -0.24342,0.0847 -0.43392,0.254 -0.1905,0.15875 -0.32808,0.381 -0.127,0.22225 -0.16933,0.47625 v 2.91041 h -1.43934 v -5.29166 h 1.43934 v 0.68791 q 0.56091,-0.77258 1.64041,-0.77258 0.635,0 1.22767,0.29633 z" />
      <path
         id="path1551"
         style="font-style:normal;font-variant:normal;font-weight:normal;font-stretch:normal;font-size:10.58333302px;font-family:Quantify;-inkscape-font-specification:'Quantify, Normal';font-variant-ligatures:normal;font-variant-caps:normal;font-variant-numeric:normal;font-feature-settings:normal;text-align:start;writing-mode:lr-tb;text-anchor:start;fill:#fffff4;fill-opacity:1;stroke:none;stroke-width:0.26458332;stroke-opacity:1"
         d="m 123.67241,107.17129 q 0.56092,0 1.05833,0.22225 0.49742,0.21167 0.86784,0.58208 0.37041,0.37042 0.58208,0.86784 0.22225,0.49741 0.22225,1.06891 0,0.30692 -0.0635,0.59267 l -0.0106,0.0212 h -2.68817 l -0.67733,-1.0795 h 2.01083 q -0.14817,-0.4445 -0.49742,-0.73025 -0.33866,-0.28575 -0.80433,-0.28575 -0.28575,0 -0.53975,0.11641 -0.254,0.11642 -0.4445,0.3175 -0.17992,0.1905 -0.28575,0.46567 -0.10583,0.26458 -0.10583,0.58208 0,0.24342 0.0952,0.508 0.0953,0.254 0.27516,0.46567 0.17992,0.21167 0.43392,0.35983 0.254,0.13759 0.5715,0.13759 0.28575,0 0.51858,-0.0741 0.24342,-0.0847 0.45509,-0.35983 l 0.0106,-0.0106 0.0212,0.0106 1.22766,0.53975 -0.0212,0.0212 q -0.381,0.52916 -0.97367,0.8255 -0.58208,0.29633 -1.23825,0.29633 -0.5715,0 -1.0795,-0.21167 -0.49742,-0.21166 -0.86783,-0.58208 -0.37042,-0.37042 -0.59267,-0.86783 -0.21167,-0.49742 -0.21167,-1.05834 0,-0.5715 0.21167,-1.06891 0.22225,-0.49742 0.59267,-0.86784 0.37041,-0.37041 0.86783,-0.58208 0.508,-0.22225 1.0795,-0.22225 z" />
      <path
         id="path1553"
         style="font-style:normal;font-variant:normal;font-weight:normal;font-stretch:normal;font-size:10.58333302px;font-family:Quantify;-inkscape-font-specification:'Quantify, Normal';font-variant-ligatures:normal;font-variant-caps:normal;font-variant-numeric:normal;font-feature-settings:normal;text-align:start;writing-mode:lr-tb;text-anchor:start;fill:#fffff4;fill-opacity:1;stroke:none;stroke-width:0.26458332;stroke-opacity:1"
         d="m 132.67453,107.25596 v 4.68841 q -0.0318,0.59267 -0.26459,1.10067 -0.23283,0.51858 -0.62441,0.889 -0.381,0.381 -0.89959,0.59267 -0.51858,0.22225 -1.10066,0.22225 -0.78317,0 -1.4605,-0.39159 -0.66675,-0.381 -1.05834,-1.04775 l -0.0106,-0.0212 0.0106,-0.0106 1.16417,-0.508 q 0.10583,0.1905 0.26458,0.32809 0.16934,0.14816 0.34925,0.23283 0.1905,0.0953 0.381,0.13758 0.20109,0.0529 0.381,0.0529 0.27517,0 0.53975,-0.11642 0.26459,-0.11641 0.46567,-0.33866 0.21167,-0.22225 0.32808,-0.52917 0.127,-0.30692 0.127,-0.68792 v -1.93675 q 0,-0.30691 -0.127,-0.5715 -0.11641,-0.27516 -0.32808,-0.46566 -0.20108,-0.20109 -0.47625,-0.3175 -0.26458,-0.11642 -0.5715,-0.11642 -0.30692,0 -0.58208,0.11642 -0.26459,0.11641 -0.46567,0.3175 -0.20108,0.1905 -0.3175,0.46566 -0.11642,0.26459 -0.11642,0.5715 0,0.30692 0.11642,0.5715 0.11642,0.26459 0.3175,0.46567 0.20108,0.20108 0.46567,0.3175 0.27516,0.11642 0.58208,0.11642 0.32808,0 0.5715,-0.11642 h 0.0106 l 0.0106,0.0106 0.52916,0.94192 -0.0106,0.0106 q -0.51858,0.42334 -1.28058,0.42334 -0.5715,0 -1.0795,-0.21167 -0.508,-0.22225 -0.87842,-0.59267 -0.37042,-0.37041 -0.59267,-0.86783 -0.21166,-0.508 -0.21166,-1.06892 0,-0.5715 0.21166,-1.06891 0.22225,-0.49742 0.59267,-0.86784 0.37042,-0.37041 0.87842,-0.58208 0.508,-0.22225 1.0795,-0.22225 1.0795,0 1.67216,0.81492 v -0.73025 z" />
      <path
         id="path1555"
         style="font-style:normal;font-variant:normal;font-weight:normal;font-stretch:normal;font-size:10.58333302px;font-family:Quantify;-inkscape-font-specification:'Quantify, Normal';font-variant-ligatures:normal;font-variant-caps:normal;font-variant-numeric:normal;font-feature-settings:normal;text-align:start;writing-mode:lr-tb;text-anchor:start;fill:#fffff4;fill-opacity:1;stroke:none;stroke-width:0.26458332;stroke-opacity:1"
         d="m 138.98815,107.25596 v 5.29166 h -1.38642 v -2.64583 q 0,-0.30692 -0.11642,-0.5715 -0.11641,-0.26458 -0.32808,-0.46567 -0.20108,-0.20108 -0.47625,-0.30691 -0.26458,-0.11642 -0.56092,-0.11642 -0.30691,0 -0.5715,0.11642 -0.26458,0.11641 -0.47625,0.3175 -0.20108,0.1905 -0.3175,0.46566 -0.11641,0.26459 -0.11641,0.5715 0,0.29634 0.11641,0.56092 0.11642,0.26458 0.3175,0.46567 0.21167,0.20108 0.47625,0.3175 0.26459,0.11641 0.5715,0.11641 0.32809,0 0.56092,-0.11641 h 0.0106 v 0.0212 l 0.52917,0.94192 -0.0106,0.0106 q -0.51859,0.40217 -1.28059,0.40217 -0.56091,0 -1.05833,-0.21167 -0.49742,-0.21166 -0.86783,-0.58208 -0.37042,-0.37042 -0.59267,-0.86783 -0.21167,-0.49742 -0.21167,-1.05834 0,-0.5715 0.21167,-1.06891 0.22225,-0.49742 0.59267,-0.86784 0.37041,-0.37041 0.86783,-0.58208 0.49742,-0.22225 1.05833,-0.22225 0.55034,0 0.96309,0.21167 0.41275,0.20108 0.70908,0.59266 v -0.71966 z" />
      <path
         id="path1557"
         style="font-style:normal;font-variant:normal;font-weight:normal;font-stretch:normal;font-size:10.58333302px;font-family:Quantify;-inkscape-font-specification:'Quantify, Normal';font-variant-ligatures:normal;font-variant-caps:normal;font-variant-numeric:normal;font-feature-settings:normal;text-align:start;writing-mode:lr-tb;text-anchor:start;fill:#fffff4;fill-opacity:1;stroke:none;stroke-width:0.26458332;stroke-opacity:1"
         d="m 142.00621,109.40437 q 0.34925,0.11642 0.635,0.24342 0.29634,0.11642 0.508,0.28575 0.22225,0.16933 0.33867,0.41275 0.127,0.23283 0.127,0.56092 v 0.0106 q 0,0.80433 -0.53975,1.25942 -0.52917,0.45508 -1.49225,0.45508 -0.60325,0 -1.18533,-0.20108 -0.58209,-0.21167 -1.09009,-0.59267 l -0.0106,-0.0106 0.0106,-0.0106 0.71967,-1.13241 0.0106,0.0106 q 0.3175,0.33867 0.71967,0.51858 0.40217,0.16934 0.85725,0.16934 0.62442,0 0.62442,-0.40217 0,-0.1905 -0.20109,-0.28575 -0.20108,-0.0952 -0.47625,-0.17992 -0.0529,-0.0212 -0.10583,-0.0212 -0.0423,-0.0106 -0.0953,-0.0318 -0.3175,-0.0847 -0.635,-0.17992 -0.3175,-0.10583 -0.5715,-0.27517 -0.254,-0.17991 -0.42333,-0.4445 -0.15875,-0.27516 -0.15875,-0.6985 v -0.0212 q 0,-0.37042 0.13758,-0.67734 0.13758,-0.30691 0.39158,-0.52916 0.254,-0.22225 0.61384,-0.33867 0.35983,-0.127 0.79375,-0.127 0.508,0 1.02658,0.15875 0.51858,0.14817 0.96308,0.4445 v 0.0212 l -0.64558,1.17475 -0.0106,-0.0106 q -0.24342,-0.24341 -0.60325,-0.381 -0.35984,-0.14816 -0.762,-0.14816 -0.0741,0 -0.16934,0.0106 -0.0952,0.0106 -0.17991,0.0529 -0.0741,0.0423 -0.127,0.11641 -0.0529,0.0635 -0.0529,0.1905 0,0.0953 0.0847,0.17992 0.0847,0.0741 0.21166,0.14817 0.13759,0.0635 0.29634,0.127 0.16933,0.0635 0.32808,0.11641 0.0318,0 0.0635,0.0106 0.0423,0.0106 0.0741,0.0212 z" />
    </g>
    <g
       id="text817-4"
       style="font-style:normal;font-weight:normal;font-size:10.58333302px;line-height:1.25;font-family:sans-serif;letter-spacing:0px;word-spacing:0px;fill:#00ffde;fill-opacity:1;stroke:none;stroke-width:0.26458332"
       aria-label="quar">
      <path
         id="path1560"
         style="font-style:normal;font-variant:normal;font-weight:normal;font-stretch:normal;font-size:10.58333302px;font-family:Quantify;-inkscape-font-specification:'Quantify, Normal';font-variant-ligatures:normal;font-variant-caps:normal;font-variant-numeric:normal;font-feature-settings:normal;text-align:start;writing-mode:lr-tb;text-anchor:start;fill:#00ffde;fill-opacity:1;stroke-width:0.26458332"
         d="m 83.931243,107.24836 v 7.40833 h -1.42875 v -2.76225 -1.97908 q 0,-0.30692 -0.116417,-0.5715 -0.116416,-0.27517 -0.3175,-0.47625 -0.201083,-0.20109 -0.47625,-0.3175 -0.264583,-0.11642 -0.582083,-0.11642 -0.306917,0 -0.582083,0.11642 -0.275167,0.11641 -0.486834,0.3175 -0.201083,0.20108 -0.317499,0.47625 -0.116417,0.26458 -0.116417,0.5715 0,0.3175 0.116417,0.59266 0.116416,0.27517 0.317499,0.48684 0.211667,0.20108 0.486834,0.3175 0.275166,0.11641 0.582083,0.11641 0.275167,0 0.5715,-0.11641 l 0.01058,-0.0106 v 0.0106 l 0.550334,0.96308 -0.01058,0.0106 q -0.53975,0.41275 -1.312333,0.41275 -0.5715,0 -1.0795,-0.21166 -0.497416,-0.22225 -0.878416,-0.59267 -0.381,-0.381 -0.60325,-0.889 -0.211667,-0.508 -0.211667,-1.09008 0,-0.5715 0.211667,-1.06892 0.22225,-0.49742 0.60325,-0.86783 0.381,-0.381 0.878416,-0.59267 0.508,-0.22225 1.0795,-0.22225 0.550333,0 0.973667,0.20108 0.433916,0.20109 0.709083,0.60325 v -0.71966 z" />
      <path
         id="path1562"
         style="font-style:normal;font-variant:normal;font-weight:normal;font-stretch:normal;font-size:10.58333302px;font-family:Quantify;-inkscape-font-specification:'Quantify, Normal';font-variant-ligatures:normal;font-variant-caps:normal;font-variant-numeric:normal;font-feature-settings:normal;text-align:start;writing-mode:lr-tb;text-anchor:start;fill:#00ffde;fill-opacity:1;stroke-width:0.26458332"
         d="m 89.915787,107.24836 v 5.32341 h -1.449916 v -5.32341 z m -2.2225,3.95816 0.508,0.92075 v 0.0106 q -0.550333,0.48683 -1.36525,0.48683 -1.291166,0 -1.830916,-0.6985 -0.497417,-0.62442 -0.497417,-1.98967 v -2.68816 h 1.449917 v 2.68816 q 0,0.28575 0.01058,0.55034 0.02117,0.26458 0.116417,0.46566 0.105833,0.20109 0.3175,0.32809 0.211666,0.11641 0.60325,0.11641 0.179916,0 0.34925,-0.0529 0.169333,-0.0529 0.3175,-0.13759 z" />
      <path
         id="path1564"
         style="font-style:normal;font-variant:normal;font-weight:normal;font-stretch:normal;font-size:10.58333302px;font-family:Quantify;-inkscape-font-specification:'Quantify, Normal';font-variant-ligatures:normal;font-variant-caps:normal;font-variant-numeric:normal;font-feature-settings:normal;text-align:start;writing-mode:lr-tb;text-anchor:start;fill:#00ffde;fill-opacity:1;stroke-width:0.26458332"
         d="m 96.238337,107.24836 v 5.29166 H 94.85192 v -2.64583 q 0,-0.30692 -0.116416,-0.5715 -0.116417,-0.26458 -0.328084,-0.46567 -0.201083,-0.20108 -0.47625,-0.30691 -0.264583,-0.11642 -0.560916,-0.11642 -0.306917,0 -0.5715,0.11642 -0.264584,0.11641 -0.47625,0.3175 -0.201084,0.1905 -0.3175,0.46566 -0.116417,0.26459 -0.116417,0.5715 0,0.29634 0.116417,0.56092 0.116416,0.26458 0.3175,0.46567 0.211666,0.20108 0.47625,0.3175 0.264583,0.11641 0.5715,0.11641 0.328083,0 0.560916,-0.11641 h 0.01058 v 0.0212 l 0.529166,0.94192 -0.01058,0.0106 q -0.518583,0.40217 -1.280583,0.40217 -0.560917,0 -1.058334,-0.21167 -0.497416,-0.21166 -0.867833,-0.58208 -0.370417,-0.37042 -0.592667,-0.86783 -0.211666,-0.49742 -0.211666,-1.05834 0,-0.5715 0.211666,-1.06891 0.22225,-0.49742 0.592667,-0.86784 0.370417,-0.37041 0.867833,-0.58208 0.497417,-0.22225 1.058334,-0.22225 0.550333,0 0.963083,0.21167 0.41275,0.20108 0.709083,0.59266 v -0.71966 z" />
      <path
         id="path1566"
         style="font-style:normal;font-variant:normal;font-weight:normal;font-stretch:normal;font-size:10.58333302px;font-family:Quantify;-inkscape-font-specification:'Quantify, Normal';font-variant-ligatures:normal;font-variant-caps:normal;font-variant-numeric:normal;font-feature-settings:normal;text-align:start;writing-mode:lr-tb;text-anchor:start;fill:#00ffde;fill-opacity:1;stroke-width:0.26458332"
         d="m 101.30163,107.46002 -0.127,0.21167 -0.53975,0.96308 -0.0106,-0.0106 q -0.34925,-0.20108 -0.751416,-0.20108 -0.275167,0 -0.518584,0.0953 -0.243416,0.0847 -0.433916,0.254 -0.1905,0.15875 -0.328084,0.381 -0.127,0.22225 -0.169333,0.47625 v 2.91041 h -1.439333 v -5.29166 h 1.439333 v 0.68791 q 0.560917,-0.77258 1.640413,-0.77258 0.635,0 1.22767,0.29633 z" />
    </g>
    <text
       id="text872"
       y="118.21725"
       x="77.863091"
       style="font-style:normal;font-weight:normal;font-size:10.58333302px;line-height:1.25;font-family:sans-serif;letter-spacing:0px;word-spacing:0px;fill:#000000;fill-opacity:1;stroke:none;stroke-width:0.26458332"
       xml:space="preserve"><tspan
         style="stroke-width:0.26458332"
         y="127.58102"
         x="77.863091"
         id="tspan870" /></text>
  </g>
</svg>
